<svg width="1366" height="456" viewBox="0 0 1366 456" fill="none" xmlns="http://www.w3.org/2000/svg">
<mask id="mask0_1029_17913" style="mask-type:luminance" maskUnits="userSpaceOnUse" x="0" y="-74" width="1366" height="530">
<path fill-rule="evenodd" clip-rule="evenodd" d="M0 -74H1366V386C1366 424.66 1334.66 456 1296 456H70C31.3401 456 0 424.66 0 386V-74Z" fill="white"/>
</mask>
<g mask="url(#mask0_1029_17913)">
<path fill-rule="evenodd" clip-rule="evenodd" d="M0 -100H1366V456H0V-100Z" fill="url(#paint0_linear_1029_17913)" stroke="url(#paint1_linear_1029_17913)"/>
<g opacity="0.1">
<ellipse cx="1275.24" cy="19.814" rx="3.77563" ry="3.75831" fill="#F2F3F8"/>
<ellipse cx="1300.41" cy="19.814" rx="3.77563" ry="3.75831" fill="#F2F3F8"/>
<ellipse cx="1325.58" cy="19.814" rx="3.77563" ry="3.75831" fill="#F2F3F8"/>
<ellipse cx="1350.75" cy="19.814" rx="3.77563" ry="3.75831" fill="#F2F3F8"/>
<ellipse cx="1275.24" cy="44.8687" rx="3.77563" ry="3.75831" fill="#F2F3F8"/>
<ellipse cx="1300.41" cy="44.8696" rx="3.77563" ry="3.75831" fill="#F2F3F8"/>
<ellipse cx="1325.58" cy="44.8696" rx="3.77563" ry="3.75831" fill="#F2F3F8"/>
<ellipse cx="1350.75" cy="44.8687" rx="3.77563" ry="3.75831" fill="#F2F3F8"/>
<ellipse cx="1275.24" cy="69.9243" rx="3.77563" ry="3.75831" fill="#F2F3F8"/>
<ellipse cx="1300.41" cy="69.9243" rx="3.77563" ry="3.75831" fill="#F2F3F8"/>
<ellipse cx="1325.58" cy="69.9243" rx="3.77563" ry="3.75831" fill="#F2F3F8"/>
<ellipse cx="1350.75" cy="69.9243" rx="3.77563" ry="3.75831" fill="#F2F3F8"/>
</g>
<g opacity="0.1">
<ellipse cx="1174.78" cy="19.814" rx="3.77563" ry="3.75831" fill="#F2F3F8"/>
<ellipse cx="1199.95" cy="19.814" rx="3.77563" ry="3.75831" fill="#F2F3F8"/>
<ellipse cx="1225.12" cy="19.814" rx="3.77563" ry="3.75831" fill="#F2F3F8"/>
<ellipse cx="1250.29" cy="19.814" rx="3.77563" ry="3.75831" fill="#F2F3F8"/>
<ellipse cx="1174.78" cy="44.8687" rx="3.77563" ry="3.75831" fill="#2E204E"/>
<ellipse cx="1199.95" cy="44.8696" rx="3.77563" ry="3.75831" fill="#2E204E"/>
<ellipse cx="1225.12" cy="44.8696" rx="3.77563" ry="3.75831" fill="#F2F3F8"/>
<ellipse cx="1250.29" cy="44.8687" rx="3.77563" ry="3.75831" fill="#F2F3F8"/>
<ellipse cx="1174.78" cy="69.9243" rx="3.77563" ry="3.75831" fill="#2E204E"/>
<ellipse cx="1199.95" cy="69.9243" rx="3.77563" ry="3.75831" fill="#2E204E"/>
<ellipse cx="1225.12" cy="69.9243" rx="3.77563" ry="3.75831" fill="#F2F3F8"/>
<ellipse cx="1250.29" cy="69.9243" rx="3.77563" ry="3.75831" fill="#F2F3F8"/>
</g>
<g opacity="0.1">
<ellipse cx="1274.24" cy="96.7583" rx="3.77563" ry="3.75831" fill="#F2F3F8"/>
<ellipse cx="1299.41" cy="96.7583" rx="3.77563" ry="3.75831" fill="#F2F3F8"/>
<ellipse cx="1324.58" cy="96.7583" rx="3.77563" ry="3.75831" fill="#F2F3F8"/>
<ellipse cx="1349.75" cy="96.7583" rx="3.77563" ry="3.75831" fill="#F2F3F8"/>
<ellipse cx="1274.24" cy="121.813" rx="3.77563" ry="3.75831" fill="#F2F3F8"/>
<ellipse cx="1299.41" cy="121.814" rx="3.77563" ry="3.75831" fill="#F2F3F8"/>
<ellipse cx="1324.58" cy="121.814" rx="3.77563" ry="3.75831" fill="#F2F3F8"/>
<ellipse cx="1349.75" cy="121.813" rx="3.77563" ry="3.75831" fill="#F2F3F8"/>
<ellipse cx="1274.24" cy="146.869" rx="3.77563" ry="3.75831" fill="#F2F3F8"/>
<ellipse cx="1299.41" cy="146.869" rx="3.77563" ry="3.75831" fill="#F2F3F8"/>
<ellipse cx="1324.58" cy="146.869" rx="3.77563" ry="3.75831" fill="#F2F3F8"/>
<ellipse cx="1349.75" cy="146.869" rx="3.77563" ry="3.75831" fill="#F2F3F8"/>
<ellipse cx="1274.24" cy="171.924" rx="3.77563" ry="3.75831" fill="#F2F3F8"/>
<ellipse cx="1299.41" cy="171.924" rx="3.77563" ry="3.75831" fill="#F2F3F8"/>
<ellipse cx="1324.58" cy="171.924" rx="3.77563" ry="3.75831" fill="#F2F3F8"/>
<ellipse cx="1349.75" cy="171.924" rx="3.77563" ry="3.75831" fill="#F2F3F8"/>
</g>
<g opacity="0.1">
<ellipse cx="1173.78" cy="96.7583" rx="3.77563" ry="3.75831" fill="#F2F3F8"/>
<ellipse cx="1198.95" cy="96.7583" rx="3.77563" ry="3.75831" fill="#F2F3F8"/>
<ellipse cx="1224.12" cy="96.7583" rx="3.77563" ry="3.75831" fill="#F2F3F8"/>
<ellipse cx="1249.29" cy="96.7583" rx="3.77563" ry="3.75831" fill="#F2F3F8"/>
<ellipse cx="1173.78" cy="121.813" rx="3.77563" ry="3.75831" fill="#F2F3F8"/>
<ellipse cx="1198.95" cy="121.814" rx="3.77563" ry="3.75831" fill="#F2F3F8"/>
<ellipse cx="1224.12" cy="121.814" rx="3.77563" ry="3.75831" fill="#F2F3F8"/>
<ellipse cx="1249.29" cy="121.813" rx="3.77563" ry="3.75831" fill="#F2F3F8"/>
<ellipse cx="1173.78" cy="146.869" rx="3.77563" ry="3.75831" fill="#2E204E"/>
<ellipse cx="1198.95" cy="146.869" rx="3.77563" ry="3.75831" fill="#2E204E"/>
<ellipse cx="1224.12" cy="146.869" rx="3.77563" ry="3.75831" fill="#F2F3F8"/>
<ellipse cx="1249.29" cy="146.869" rx="3.77563" ry="3.75831" fill="#F2F3F8"/>
<ellipse cx="1173.78" cy="171.924" rx="3.77563" ry="3.75831" fill="#2E204E"/>
<ellipse cx="1198.95" cy="171.924" rx="3.77563" ry="3.75831" fill="#2E204E"/>
<ellipse cx="1224.12" cy="171.924" rx="3.77563" ry="3.75831" fill="#F2F3F8"/>
<ellipse cx="1249.29" cy="171.924" rx="3.77563" ry="3.75831" fill="#F2F3F8"/>
</g>
<mask id="mask1_1029_17913" style="mask-type:luminance" maskUnits="userSpaceOnUse" x="-53" y="133" width="211" height="210">
<ellipse cx="52.6697" cy="238.433" rx="104.982" ry="104.5" fill="white"/>
</mask>
<g mask="url(#mask1_1029_17913)">
<g opacity="0.1">
<ellipse cx="7.24727" cy="147.949" rx="3.18233" ry="3.1326" fill="#F2F3F8"/>
<ellipse cx="28.4631" cy="147.949" rx="3.18233" ry="3.1326" fill="#F2F3F8"/>
<ellipse cx="49.6784" cy="147.949" rx="3.18233" ry="3.1326" fill="#F2F3F8"/>
<ellipse cx="7.24727" cy="168.833" rx="3.18233" ry="3.1326" fill="#F2F3F8"/>
<ellipse cx="28.4631" cy="168.833" rx="3.18233" ry="3.1326" fill="#F2F3F8"/>
<ellipse cx="49.6784" cy="168.833" rx="3.18233" ry="3.1326" fill="#F2F3F8"/>
<ellipse cx="7.24727" cy="189.717" rx="3.18233" ry="3.1326" fill="#F2F3F8"/>
<ellipse cx="28.4631" cy="189.717" rx="3.18233" ry="3.1326" fill="#F2F3F8"/>
<ellipse cx="49.6784" cy="189.717" rx="3.18233" ry="3.1326" fill="#F2F3F8"/>
</g>
<g opacity="0.1">
<ellipse cx="6.24239" cy="212.065" rx="3.18233" ry="3.1326" fill="#F2F3F8"/>
<ellipse cx="27.4582" cy="212.065" rx="3.18233" ry="3.1326" fill="#F2F3F8"/>
<ellipse cx="48.6735" cy="212.065" rx="3.18233" ry="3.1326" fill="#F2F3F8"/>
<ellipse cx="6.24239" cy="232.949" rx="3.18233" ry="3.1326" fill="#F2F3F8"/>
<ellipse cx="27.4582" cy="232.949" rx="3.18233" ry="3.1326" fill="#F2F3F8"/>
<ellipse cx="48.6735" cy="232.949" rx="3.18233" ry="3.1326" fill="#F2F3F8"/>
<ellipse cx="6.24239" cy="253.833" rx="3.18233" ry="3.1326" fill="#F2F3F8"/>
<ellipse cx="27.4582" cy="253.833" rx="3.18233" ry="3.1326" fill="#F2F3F8"/>
<ellipse cx="48.6735" cy="253.833" rx="3.18233" ry="3.1326" fill="#F2F3F8"/>
<ellipse cx="6.24239" cy="274.717" rx="3.18233" ry="3.1326" fill="#F2F3F8"/>
<ellipse cx="27.4582" cy="274.717" rx="3.18233" ry="3.1326" fill="#F2F3F8"/>
<ellipse cx="48.6735" cy="274.717" rx="3.18233" ry="3.1326" fill="#F2F3F8"/>
</g>
<g opacity="0.1">
<ellipse cx="3.18233" cy="3.1326" rx="3.18233" ry="3.1326" transform="matrix(-1 0 0 1 136.555 144.816)" fill="#F2F3F8"/>
<ellipse cx="3.18233" cy="3.1326" rx="3.18233" ry="3.1326" transform="matrix(-1 0 0 1 115.34 144.816)" fill="#F2F3F8"/>
<ellipse cx="3.18233" cy="3.1326" rx="3.18233" ry="3.1326" transform="matrix(-1 0 0 1 94.124 144.816)" fill="#F2F3F8"/>
<ellipse cx="3.18233" cy="3.1326" rx="3.18233" ry="3.1326" transform="matrix(-1 0 0 1 72.9087 144.816)" fill="#F2F3F8"/>
<ellipse cx="3.18233" cy="3.1326" rx="3.18233" ry="3.1326" transform="matrix(-1 0 0 1 136.555 165.701)" fill="#F2F3F8"/>
<ellipse cx="3.18233" cy="3.1326" rx="3.18233" ry="3.1326" transform="matrix(-1 0 0 1 115.34 165.701)" fill="#F2F3F8"/>
<ellipse cx="3.18233" cy="3.1326" rx="3.18233" ry="3.1326" transform="matrix(-1 0 0 1 94.124 165.701)" fill="#F2F3F8"/>
<ellipse cx="3.18233" cy="3.1326" rx="3.18233" ry="3.1326" transform="matrix(-1 0 0 1 72.9087 165.701)" fill="#F2F3F8"/>
<ellipse cx="3.18233" cy="3.1326" rx="3.18233" ry="3.1326" transform="matrix(-1 0 0 1 136.555 186.584)" fill="#F2F3F8"/>
<ellipse cx="3.18233" cy="3.1326" rx="3.18233" ry="3.1326" transform="matrix(-1 0 0 1 115.34 186.584)" fill="#F2F3F8"/>
<ellipse cx="3.18233" cy="3.1326" rx="3.18233" ry="3.1326" transform="matrix(-1 0 0 1 94.124 186.584)" fill="#F2F3F8"/>
<ellipse cx="3.18233" cy="3.1326" rx="3.18233" ry="3.1326" transform="matrix(-1 0 0 1 72.9087 186.584)" fill="#F2F3F8"/>
</g>
<g opacity="0.1">
<ellipse cx="3.18233" cy="3.1326" rx="3.18233" ry="3.1326" transform="matrix(-1 0 0 1 157.296 144.816)" fill="#F2F3F8"/>
<ellipse cx="3.18233" cy="3.1326" rx="3.18233" ry="3.1326" transform="matrix(-1 0 0 1 157.296 165.701)" fill="#F2F3F8"/>
<ellipse cx="3.18233" cy="3.1326" rx="3.18233" ry="3.1326" transform="matrix(-1 0 0 1 157.296 186.584)" fill="#F2F3F8"/>
</g>
<g opacity="0.1">
<ellipse cx="3.18233" cy="3.1326" rx="3.18233" ry="3.1326" transform="matrix(-1 0 0 1 137.56 208.933)" fill="#F2F3F8"/>
<ellipse cx="3.18233" cy="3.1326" rx="3.18233" ry="3.1326" transform="matrix(-1 0 0 1 116.344 208.933)" fill="#F2F3F8"/>
<ellipse cx="3.18233" cy="3.1326" rx="3.18233" ry="3.1326" transform="matrix(-1 0 0 1 95.1284 208.933)" fill="#F2F3F8"/>
<ellipse cx="3.18233" cy="3.1326" rx="3.18233" ry="3.1326" transform="matrix(-1 0 0 1 73.9131 208.933)" fill="#F2F3F8"/>
<ellipse cx="3.18233" cy="3.1326" rx="3.18233" ry="3.1326" transform="matrix(-1 0 0 1 137.56 229.816)" fill="#F2F3F8"/>
<ellipse cx="3.18233" cy="3.1326" rx="3.18233" ry="3.1326" transform="matrix(-1 0 0 1 116.344 229.816)" fill="#F2F3F8"/>
<ellipse cx="3.18233" cy="3.1326" rx="3.18233" ry="3.1326" transform="matrix(-1 0 0 1 95.1284 229.816)" fill="#F2F3F8"/>
<ellipse cx="3.18233" cy="3.1326" rx="3.18233" ry="3.1326" transform="matrix(-1 0 0 1 73.9131 229.816)" fill="#F2F3F8"/>
<ellipse cx="3.18233" cy="3.1326" rx="3.18233" ry="3.1326" transform="matrix(-1 0 0 1 137.56 250.701)" fill="#F2F3F8"/>
<ellipse cx="3.18233" cy="3.1326" rx="3.18233" ry="3.1326" transform="matrix(-1 0 0 1 116.344 250.701)" fill="#F2F3F8"/>
<ellipse cx="3.18233" cy="3.1326" rx="3.18233" ry="3.1326" transform="matrix(-1 0 0 1 95.1284 250.701)" fill="#F2F3F8"/>
<ellipse cx="3.18233" cy="3.1326" rx="3.18233" ry="3.1326" transform="matrix(-1 0 0 1 73.9131 250.701)" fill="#F2F3F8"/>
<ellipse cx="3.18233" cy="3.1326" rx="3.18233" ry="3.1326" transform="matrix(-1 0 0 1 137.56 271.584)" fill="#F2F3F8"/>
<ellipse cx="3.18233" cy="3.1326" rx="3.18233" ry="3.1326" transform="matrix(-1 0 0 1 116.344 271.584)" fill="#F2F3F8"/>
<ellipse cx="3.18233" cy="3.1326" rx="3.18233" ry="3.1326" transform="matrix(-1 0 0 1 95.1284 271.584)" fill="#F2F3F8"/>
<ellipse cx="3.18233" cy="3.1326" rx="3.18233" ry="3.1326" transform="matrix(-1 0 0 1 73.9131 271.584)" fill="#F2F3F8"/>
</g>
<g opacity="0.1">
<ellipse cx="3.18233" cy="3.1326" rx="3.18233" ry="3.1326" transform="matrix(-1 0 0 1 158.3 208.933)" fill="#F2F3F8"/>
<ellipse cx="3.18233" cy="3.1326" rx="3.18233" ry="3.1326" transform="matrix(-1 0 0 1 158.3 229.816)" fill="#F2F3F8"/>
<ellipse cx="3.18233" cy="3.1326" rx="3.18233" ry="3.1326" transform="matrix(-1 0 0 1 158.3 250.701)" fill="#F2F3F8"/>
<ellipse cx="3.18233" cy="3.1326" rx="3.18233" ry="3.1326" transform="matrix(-1 0 0 1 158.3 271.584)" fill="#F2F3F8"/>
</g>
<g opacity="0.1">
<ellipse cx="8.25118" cy="291.065" rx="3.18233" ry="3.1326" fill="#F2F3F8"/>
<ellipse cx="29.467" cy="291.065" rx="3.18233" ry="3.1326" fill="#F2F3F8"/>
<ellipse cx="50.6823" cy="291.065" rx="3.18233" ry="3.1326" fill="#F2F3F8"/>
<ellipse cx="8.25118" cy="311.949" rx="3.18233" ry="3.1326" fill="#F2F3F8"/>
<ellipse cx="29.467" cy="311.949" rx="3.18233" ry="3.1326" fill="#F2F3F8"/>
<ellipse cx="50.6823" cy="311.949" rx="3.18233" ry="3.1326" fill="#F2F3F8"/>
<ellipse cx="8.25118" cy="332.833" rx="3.18233" ry="3.1326" fill="#F2F3F8"/>
<ellipse cx="29.467" cy="332.833" rx="3.18233" ry="3.1326" fill="#F2F3F8"/>
<ellipse cx="50.6823" cy="332.833" rx="3.18233" ry="3.1326" fill="#F2F3F8"/>
</g>
<g opacity="0.1">
<ellipse cx="3.18233" cy="3.1326" rx="3.18233" ry="3.1326" transform="matrix(-1 0 0 1 137.56 287.933)" fill="#F2F3F8"/>
<ellipse cx="3.18233" cy="3.1326" rx="3.18233" ry="3.1326" transform="matrix(-1 0 0 1 116.344 287.933)" fill="#F2F3F8"/>
<ellipse cx="3.18233" cy="3.1326" rx="3.18233" ry="3.1326" transform="matrix(-1 0 0 1 95.1284 287.933)" fill="#F2F3F8"/>
<ellipse cx="3.18233" cy="3.1326" rx="3.18233" ry="3.1326" transform="matrix(-1 0 0 1 73.9131 287.933)" fill="#F2F3F8"/>
<ellipse cx="3.18233" cy="3.1326" rx="3.18233" ry="3.1326" transform="matrix(-1 0 0 1 137.56 308.816)" fill="#F2F3F8"/>
<ellipse cx="3.18233" cy="3.1326" rx="3.18233" ry="3.1326" transform="matrix(-1 0 0 1 116.344 308.816)" fill="#F2F3F8"/>
<ellipse cx="3.18233" cy="3.1326" rx="3.18233" ry="3.1326" transform="matrix(-1 0 0 1 95.1284 308.816)" fill="#F2F3F8"/>
<ellipse cx="3.18233" cy="3.1326" rx="3.18233" ry="3.1326" transform="matrix(-1 0 0 1 73.9131 308.816)" fill="#F2F3F8"/>
<ellipse cx="3.18233" cy="3.1326" rx="3.18233" ry="3.1326" transform="matrix(-1 0 0 1 137.56 329.701)" fill="#F2F3F8"/>
<ellipse cx="3.18233" cy="3.1326" rx="3.18233" ry="3.1326" transform="matrix(-1 0 0 1 116.344 329.701)" fill="#F2F3F8"/>
<ellipse cx="3.18233" cy="3.1326" rx="3.18233" ry="3.1326" transform="matrix(-1 0 0 1 95.1284 329.701)" fill="#F2F3F8"/>
<ellipse cx="3.18233" cy="3.1326" rx="3.18233" ry="3.1326" transform="matrix(-1 0 0 1 73.9131 329.701)" fill="#F2F3F8"/>
</g>
<g opacity="0.1">
<ellipse cx="3.18233" cy="3.1326" rx="3.18233" ry="3.1326" transform="matrix(-1 0 0 1 158.3 287.933)" fill="#F2F3F8"/>
<ellipse cx="3.18233" cy="3.1326" rx="3.18233" ry="3.1326" transform="matrix(-1 0 0 1 158.3 308.816)" fill="#F2F3F8"/>
<ellipse cx="3.18233" cy="3.1326" rx="3.18233" ry="3.1326" transform="matrix(-1 0 0 1 158.3 329.701)" fill="#F2F3F8"/>
</g>
</g>
<g opacity="0.5">
<mask id="mask2_1029_17913" style="mask-type:luminance" maskUnits="userSpaceOnUse" x="1164" y="221" width="207" height="253">
<path fill-rule="evenodd" clip-rule="evenodd" d="M1164 221.198H1370.96V473.33H1164V221.198Z" fill="white"/>
</mask>
<g mask="url(#mask2_1029_17913)">
<path fill-rule="evenodd" clip-rule="evenodd" d="M1163.97 398.421L1163.97 287.551L1232.71 221.292L1300.41 289.76V398.644L1163.97 398.421Z" fill="#B97732"/>
<mask id="mask3_1029_17913" style="mask-type:luminance" maskUnits="userSpaceOnUse" x="1163" y="221" width="138" height="178">
<path fill-rule="evenodd" clip-rule="evenodd" d="M1163.97 398.421L1163.97 287.551L1232.71 221.292L1300.41 289.76V398.644L1163.97 398.421Z" fill="white"/>
</mask>
<g mask="url(#mask3_1029_17913)">
<path fill-rule="evenodd" clip-rule="evenodd" d="M1163.97 221.579L1232.71 290.349H1163.97V221.579Z" fill="#E4A52C"/>
<path fill-rule="evenodd" clip-rule="evenodd" d="M1163.97 289.761L1274.94 399.088L1163.97 398.083V289.761Z" fill="#D0982E"/>
<path fill-rule="evenodd" clip-rule="evenodd" d="M1231.37 290.063L1232.71 220.159L1300.41 289.761L1231.37 290.063Z" fill="#E4A52C"/>
</g>
<path fill-rule="evenodd" clip-rule="evenodd" d="M1176.25 382.67L1176.25 291.544L1232.62 237.083L1288.12 293.359V382.853L1176.25 382.67Z" fill="#FBB735"/>
<path fill-rule="evenodd" clip-rule="evenodd" d="M1217.39 382.853V341.922H1244.62V382.853H1217.39Z" fill="#BC8620"/>
<ellipse cx="1232.11" cy="289.76" rx="12.5113" ry="12.5156" fill="#B97732"/>
<path fill-rule="evenodd" clip-rule="evenodd" d="M1241.68 357.193H1370.47L1360.17 472.631H1231.37L1241.68 357.193Z" fill="#B97732"/>
<path fill-rule="evenodd" clip-rule="evenodd" d="M1347.95 472.633H1360.17L1363.94 428.487L1299.23 428.167L1347.95 472.633Z" fill="#BC8620"/>
<path fill-rule="evenodd" clip-rule="evenodd" d="M1304.6 428.485H1363.94L1370.47 359.118L1304.6 428.485Z" fill="#D0982E"/>
<path fill-rule="evenodd" clip-rule="evenodd" d="M1241.68 357.345H1370.47L1370.17 319.209H1241.68V357.345Z" fill="#B97732"/>
<path fill-rule="evenodd" clip-rule="evenodd" d="M1370.17 319.209L1370.47 358.833H1302.98L1341.56 319.209H1370.17Z" fill="#D0982E"/>
<rect x="1254.04" y="330.801" width="105.095" height="28.3441" fill="#FBB735"/>
<path fill-rule="evenodd" clip-rule="evenodd" d="M1256.1 369.304H1300.41L1296.8 406.925H1252.49L1256.1 369.304Z" fill="#FBB735"/>
<path fill-rule="evenodd" clip-rule="evenodd" d="M1252.49 415.686H1296.8L1293.19 453.306H1248.89L1252.49 415.686Z" fill="#FBB735"/>
<path fill-rule="evenodd" clip-rule="evenodd" d="M1310.19 369.304H1354.5L1350.89 406.925H1306.59L1310.19 369.304Z" fill="#FBB735"/>
<path fill-rule="evenodd" clip-rule="evenodd" d="M1306.59 415.686H1350.89L1347.29 453.306H1302.98L1306.59 415.686Z" fill="#FBB735"/>
<path fill-rule="evenodd" clip-rule="evenodd" d="M1274.42 398.422C1272.9 398.422 1271.74 397.231 1271.82 395.762L1272.51 383.044C1272.59 381.575 1273.88 380.385 1275.39 380.385C1276.91 380.385 1278.07 381.575 1277.99 383.044L1277.3 395.762C1277.22 397.231 1275.93 398.422 1274.42 398.422Z" fill="#B97732"/>
<path fill-rule="evenodd" clip-rule="evenodd" d="M1265.64 388.944C1265.71 387.409 1267 386.166 1268.5 386.166H1281.52C1283.02 386.166 1284.17 387.409 1284.09 388.944C1284.02 390.478 1282.73 391.722 1281.23 391.722H1268.21C1266.71 391.722 1265.56 390.478 1265.64 388.944Z" fill="#B97732"/>
<path fill-rule="evenodd" clip-rule="evenodd" d="M1266.06 442.213C1265.07 441.166 1265.16 439.468 1266.26 438.421L1275.82 429.354C1276.93 428.307 1278.63 428.307 1279.62 429.354C1280.62 430.401 1280.53 432.098 1279.42 433.145L1269.86 442.213C1268.76 443.26 1267.06 443.26 1266.06 442.213Z" fill="#B97732"/>
<path fill-rule="evenodd" clip-rule="evenodd" d="M1266.77 429.354C1267.87 428.307 1269.56 428.307 1270.55 429.354L1279.11 438.421C1280.1 439.468 1280.01 441.166 1278.91 442.213C1277.82 443.26 1276.12 443.26 1275.14 442.213L1266.58 433.145C1265.59 432.098 1265.68 430.401 1266.77 429.354Z" fill="#B97732"/>
<path fill-rule="evenodd" clip-rule="evenodd" d="M1321.53 389.146C1321.61 387.722 1322.86 386.569 1324.33 386.569H1337.04C1338.5 386.569 1339.63 387.722 1339.55 389.146C1339.48 390.569 1338.23 391.722 1336.76 391.722H1324.05C1322.58 391.722 1321.45 390.569 1321.53 389.146Z" fill="#B97732"/>
<path fill-rule="evenodd" clip-rule="evenodd" d="M1317.93 433.208C1318 431.784 1319.25 430.631 1320.72 430.631H1333.43C1334.9 430.631 1336.03 431.784 1335.95 433.208C1335.87 434.631 1334.62 435.784 1333.15 435.784H1320.44C1318.98 435.784 1317.85 434.631 1317.93 433.208Z" fill="#B97732"/>
<path fill-rule="evenodd" clip-rule="evenodd" d="M1330.28 426.251C1330.2 427.817 1328.87 429.086 1327.3 429.086C1325.74 429.086 1324.54 427.817 1324.62 426.251C1324.71 424.686 1326.04 423.417 1327.6 423.417C1329.16 423.417 1330.36 424.686 1330.28 426.251Z" fill="#B97732"/>
<path fill-rule="evenodd" clip-rule="evenodd" d="M1329.25 440.164C1329.17 441.729 1327.84 442.998 1326.27 442.998C1324.71 442.998 1323.51 441.729 1323.59 440.164C1323.67 438.598 1325.01 437.329 1326.57 437.329C1328.13 437.329 1329.33 438.598 1329.25 440.164Z" fill="#B97732"/>
<path d="M1269.01 352.222H1352.95" stroke="#B97732" stroke-width="2.45191" stroke-linecap="round" stroke-dasharray="8.58"/>
<path fill-rule="evenodd" clip-rule="evenodd" d="M1319.74 335.719L1317.79 337.686H1314.12L1312.17 335.719H1319.74ZM1320.09 341.173L1319.36 341.923L1318.15 340.686V338.044L1320.09 336.095V341.173ZM1318.03 343.254L1319.01 342.28L1318.03 341.305H1313.88L1312.9 342.28L1313.88 343.254H1318.03ZM1313.74 346.515L1311.8 348.464V343.386L1312.53 342.655L1313.74 343.873V346.515ZM1319.74 348.837L1317.79 346.889H1314.12L1312.17 348.837H1319.74ZM1334.07 335.719L1332.12 337.686H1328.45L1326.5 335.719H1334.07ZM1326.86 341.923L1328.07 340.686V338.044L1326.12 336.095V341.173L1326.86 341.923ZM1333.34 342.28L1332.36 343.254H1328.2L1327.23 342.28L1328.2 341.305H1332.36L1333.34 342.28ZM1334.42 348.464V343.386L1333.69 342.655L1332.48 343.873V346.515L1334.42 348.464ZM1332.12 346.889L1334.07 348.837H1326.5L1328.45 346.889H1332.12ZM1346.45 337.686L1348.4 335.719H1340.83L1342.78 337.686H1346.45ZM1342.4 340.686L1341.18 341.923L1340.45 341.173V336.095L1342.4 338.044V340.686ZM1346.69 343.254L1347.67 342.28L1346.69 341.305H1342.53L1341.56 342.28L1342.53 343.254H1346.69ZM1342.4 346.515L1340.45 348.464V343.386L1341.18 342.655L1342.4 343.873V346.515ZM1348.75 348.464V343.386L1348.02 342.655L1346.8 343.873V346.515L1348.75 348.464ZM1346.45 346.889L1348.4 348.837H1340.83L1342.78 346.889H1346.45Z" fill="#B97732"/>
</g>
</g>
</g>
<defs>
<linearGradient id="paint0_linear_1029_17913" x1="1320.47" y1="485.263" x2="1005.61" y2="-508.167" gradientUnits="userSpaceOnUse">
<stop stop-color="#90631D"/>
<stop offset="1" stop-color="#D8A251"/>
</linearGradient>
<linearGradient id="paint1_linear_1029_17913" x1="17.8174" y1="-89.9691" x2="226.398" y2="15.2329" gradientUnits="userSpaceOnUse">
<stop stop-color="white" stop-opacity="0.44"/>
<stop offset="1" stop-color="white" stop-opacity="0.01"/>
</linearGradient>
</defs>
</svg>
